PathFileType	4	(X/Y/Z)	C:/Users/beibeiliu/ov580/test_trc\sequence.39_training_dense_left.trc
DataRate	CameraRate	NumFrames	NumMarkers	Units	OrigDataRate	OrigDataStartFrame	OrigNumFrames
120	120	18	19	mm	120	151	400
Frame#	Time	ThumbCMC			ThumbMCP			ThumbIP			ThumbTip			IndexMCP			IndexPIP			IndexTip			MiddleMCP			MiddlePIP			MiddleTip			RingMCP			RingPIP			RingTip			PinkyMCP			PinkyPIP			PinkyTip			BackHand1			BackHand2			BackHand3	
		X0	Y0	Z0	X1	Y1	Z1	X2	Y2	Z2	X3	Y3	Z3	X4	Y4	Z4	X5	Y5	Z5	X6	Y6	Z6	X7	Y7	Z7	X8	Y8	Z8	X9	Y9	Z9	X10	Y10	Z10	X11	Y11	Z11	X12	Y12	Z12	X13	Y13	Z13	X14	Y14	Z14	X15	Y15	Z15	X16	Y16	Z16	X17	Y17	Z17	X18	Y18	Z18	
150	1.25	-167.806	40.7892	34.5715	-150.737	45.5865	8.4342	-143.538	42.0113	-10.6795	-136.238	26.6851	-30.6182	-175.605	20.4191	-25.7856	-153.691	15.492	-45.3852	-127.292	9.47033	-39.3539	-174.324	0.225038	-27.8491	-148.285	-6.14115	-41.9922	-122.598	-4.17849	-33.9162	-172.57	-11.4866	-21.6868	-148.035	-16.5086	-31.5185	-124.915	-11.6479	-23.273	-173.064	-29.7153	-5.23064	-152.463	-28.2678	-18.1874	-128.239	-22.5868	-19.3963	-193.504	-2.56165	28.0041	-193.622	2.26434	51.9902	-194.255	26.9034	33.4284	
151	1.25833	-167.19	44.9567	33.4098	-153.304	42.7043	10.0272	-145.19	39.9216	-15.0723	-140.426	23.0266	-29.3648	-176.725	21.63	-25.4085	-155.367	14.6165	-43.6368	-126.789	11.3295	-35.74	-175.86	0.874942	-25.2093	-150.201	-5.27001	-42.6017	-120.78	-2.52205	-29.0858	-172.569	-14.3639	-21.7122	-147.623	-15.3932	-30.437	-126.499	-11.6656	-22.1856	-172.857	-26.1243	-6.99718	-153.286	-29.1746	-18.1048	-132.219	-23.3942	-17.6944	-196.638	-5.59926	24.2782	-196.006	0.505237	51.3888	-194.623	22.5587	30.0743	
152	1.26667	-168.247	43.5317	34.3506	-152.06	45.5076	13.3616	-145.73	41.5422	-11.0634	-140.564	27.3786	-29.4518	-175.777	23.2691	-27.9272	-154.008	17.4898	-43.9743	-128.827	13.4392	-36.4391	-176.125	1.61295	-27.3978	-150.402	-2.07475	-42.3488	-123.281	-2.73275	-26.5756	-174.841	-12.1036	-18.9382	-150.18	-15.9035	-29.4214	-124.661	-9.83417	-15.4468	-174.136	-29.8482	-5.47978	-153.787	-25.4141	-17.9647	-132.397	-18.4916	-13.9162	-196.099	-3.46447	27.0067	-198.256	5.03139	51.259	-195.466	24.275	33.1132	
153	1.275	-170.908	41.7759	35.5733	-154.616	48.3268	11.111	-150.534	39.9081	-10.8471	-142.811	31.067	-28.3292	-179.009	20.4561	-24.2373	-153.465	16.6996	-44.0029	-128.205	13.4161	-31.2167	-175.838	3.99363	-30.5045	-150.23	-3.10065	-40.2629	-124.382	3.10406	-22.6495	-175.917	-15.7445	-17.0136	-146.955	-14.781	-28.341	-128.741	-6.13142	-15.2184	-174.013	-25.4637	-5.47476	-150.618	-26.3454	-15.953	-132.234	-16.9328	-10.8171	-197.369	-6.18545	23.33	-199.299	2.0142	53.4076	-198.07	24.3019	34.4582	
154	1.28333	-174.719	42.7057	34.8993	-158.868	50.3876	8.35911	-153.274	44.9529	-16.0137	-148.69	32.0451	-30.3235	-179.8	22.9077	-30.1546	-156.44	15.2677	-41.4168	-132.482	17.0445	-29.5753	-177.348	0.984652	-27.2789	-149.74	0.965125	-38.7762	-125.982	8.12184	-15.519	-175.945	-10.4311	-17.1684	-145.381	-12.7657	-24.1727	-129.558	-2.08645	-7.57881	-173.815	-27.5607	-3.52566	-151.073	-20.8874	-15.8689	-134.23	-12.6472	-6.42102	-198.701	-3.05648	25.3727	-199.433	2.04344	54.0723	-198.819	25.3086	30.8351	
155	1.29167	-179.305	45.4866	36.9083	-166.797	46.6445	8.22103	-160.314	47.4217	-14.2391	-154.41	39.1401	-36.5402	-184.372	26.1282	-27.391	-157.87	22.3383	-42.1646	-134.788	25.006	-24.3496	-179.424	3.82965	-27.3892	-147.338	6.21717	-34.3965	-130.85	11.918	-11.2179	-175.439	-9.11768	-18.354	-147.495	-9.3719	-23.0927	-133.641	5.50837	-2.68682	-171.439	-23.6576	-6.86944	-149.549	-19.1604	-11.8232	-134.665	-4.49716	-1.50921	-201.742	-2.51927	24.8972	-203.776	4.14461	53.873	-204.772	22.6311	34.3533	
156	1.3	-186.114	46.1731	32.8773	-175.089	48.7804	8.52404	-169.82	50.0512	-16.8624	-162.14	46.785	-35.8616	-186.226	20.866	-29.0953	-161.524	21.5785	-39.533	-141.47	29.0152	-20.0452	-178.362	2.20417	-28.5931	-149.91	7.24697	-32.3355	-135.819	17.4392	-3.78209	-172.533	-12.3366	-18.9655	-147.531	0.798595	-19.9581	-138.72	12.2468	3.6849	-173.292	-20.6468	-3.32436	-151.419	-13.265	-10.7962	-136.712	1.99738	4.77898	-201.909	-5.34385	23.5531	-204.544	3.24761	50.5404	-207.709	20.1437	29.7202	
157	1.30833	-192.874	49.1486	35.2749	-181.335	51.5483	10.6026	-178.739	51.2158	-16.8031	-173.997	44.4785	-35.9735	-192.897	25.7721	-29.0483	-167.307	26.4105	-38.6508	-148.281	36.6243	-15.645	-182.913	3.04087	-24.7907	-152.332	13.7097	-30.4738	-142.794	24.0118	1.26716	-173.163	-10.8093	-16.1482	-150.12	4.14653	-17.1454	-144.531	17.2608	7.89493	-170.482	-20.9238	-4.79483	-151.191	-8.23078	-9.08348	-147.176	11.1253	7.12955	-203.449	-9.4383	23.4878	-206.258	-1.17029	51.4571	-212.539	23.2715	32.1647	
158	1.31667	-198.611	44.8297	33.507	-190.58	51.8561	6.30165	-187.764	48.8321	-13.4739	-184.183	47.881	-34.4621	-195.467	22.2938	-29.3303	-169.207	28.2436	-36.2671	-154.909	37.4764	-12.7327	-182.775	6.48359	-28.0093	-157.359	15.1694	-30.0982	-147.37	26.5087	-0.29635	-172.918	-8.26322	-18.5032	-152.63	8.26514	-16.4033	-147.095	19.7077	6.74168	-169.667	-20.1148	-4.6949	-150.981	-7.59926	-5.88589	-150.009	13.4022	12.377	-204.635	-8.16838	27.2647	-208.288	-3.38441	53.0888	-217.35	19.6562	31.6885	
159	1.325	-203.058	45.7541	36.5505	-198.371	51.3116	6.25964	-198.052	49.0883	-16.8514	-194.594	48.5905	-36.1875	-200.505	24.7775	-26.3707	-169.936	31.3458	-33.4682	-160.368	37.5451	-10.0253	-186.57	3.51214	-23.4169	-157.187	15.6255	-25.0053	-153.061	30.3466	3.43999	-175.678	-8.79964	-14.2953	-155.341	10.8905	-14.958	-153.822	23.4211	9.41143	-172.358	-17.7626	-3.46293	-155.089	-2.01743	-5.23391	-153.293	17.0184	9.59575	-207.577	-11.1682	28.2855	-210.932	-5.13004	52.3969	-219.05	14.6479	32.04	
160	1.33333	-206.669	42.6538	38.2541	-204.075	48.8662	9.88317	-204.745	50.1435	-14.8788	-204.406	49.6343	-37.6035	-199.189	18.629	-26.9083	-173.523	29.1508	-32.5751	-164.074	40.3835	-3.67406	-185.996	4.79349	-24.5114	-159.887	17.9017	-23.254	-157.628	30.8227	8.33918	-178.795	-8.31068	-12.2904	-152.679	10.115	-9.39301	-155.339	22.6223	11.3494	-171.328	-19.644	0.713367	-152.098	0.723121	-0.22577	-158.871	19.8429	15.9907	-209.698	-10.3373	24.4343	-212.069	-1.90021	52.8629	-223.244	15.614	34.3462	
161	1.34167	-210.684	40.8459	37.7317	-208.56	50.2653	9.30836	-209.819	47.3541	-14.3371	-211.484	50.7117	-34.3044	-201.831	20.3471	-25.4926	-176.06	29.7689	-31.6554	-167.492	38.4535	-0.887136	-188.068	1.65942	-19.8854	-160.229	15.3542	-21.3181	-158.047	30.1963	7.92963	-175.412	-9.64991	-12.4882	-157.816	11.0533	-9.95444	-159.499	23.607	16.5721	-172.124	-19.7859	2.88406	-156.198	-0.557635	-0.8609	-157.218	16.8471	18.5377	-208.112	-13.3385	25.8408	-210.8	-8.22947	52.7428	-222.281	9.39454	33.3905	
162	1.35	-213.686	38.6457	37.1934	-211.931	47.0909	9.30606	-212.73	49.6303	-11.5255	-214.408	49.5943	-29.607	-202.597	19.3002	-25.774	-172.512	29.0812	-25.9339	-169.853	39.6443	2.28941	-186.05	2.0723	-21.821	-161.142	21.3442	-19.7307	-161.778	34.1388	8.29521	-175.087	-5.62582	-12.4725	-157.423	10.8617	-6.62399	-160.531	24.6622	16.415	-169.898	-18.8452	1.17835	-153.437	0.113011	2.82664	-161.632	19.4771	22.5327	-208.835	-14.269	28.7413	-213.286	-7.89657	52.6992	-226.032	12.915	35.0563	
163	1.35833	-216.685	39.8074	36.1975	-213.163	46.3959	13.2432	-216.243	46.7666	-14.5151	-216.056	50.4054	-29.3684	-201.804	18.3069	-24.3211	-174.182	29.0663	-25.4729	-170.516	40.0491	0.334712	-187.454	3.68016	-20.7617	-162.612	17.1891	-18.8563	-163.645	34.8124	7.99554	-177.53	-8.05553	-8.5857	-159.537	11.8708	-7.72294	-165.762	27.7539	16.7475	-172.939	-16.9474	3.45025	-156.604	1.61199	1.26642	-161.175	17.6101	18.5942	-210.379	-15.6509	30.5619	-215.683	-4.83396	55.4885	-226.329	12.9461	36.5893	
164	1.36667	-217.569	37.4274	36.6863	-214.159	45.2076	12.9776	-215.476	42.3313	-11.6368	-217.804	48.3926	-30.1518	-202.601	18.7867	-25.6334	-177.742	31.775	-27.0481	-173.467	40.9977	-1.02235	-190.926	4.11424	-19.6118	-163.773	20.2599	-17.5415	-166.965	33.7891	12.3563	-177.42	-6.56381	-8.64328	-157.79	12.2679	-4.98679	-165.896	27.7095	15.3526	-171.808	-18.5009	5.80848	-158.721	4.68361	0.925685	-166.89	22.4716	18.4818	-208.223	-15.0125	31.5095	-213.83	-8.65788	58.925	-227.61	9.10698	33.9374	
165	1.375	-220.744	37.7463	36.3479	-215.85	42.1367	12.5207	-216.766	40.8064	-13.1676	-216.51	42.3397	-32.0498	-207.613	17.1629	-23.0363	-178.861	29.6777	-25.0902	-175.708	39.9823	0.599319	-188.647	2.43215	-18.6629	-164.78	23.0203	-16.5453	-170.85	37.5604	9.97389	-179.291	-3.3672	-10.1833	-161.028	17.6953	-5.22694	-168.477	29.6164	16.0199	-172.554	-14.7827	2.54761	-155.946	2.26072	1.84514	-166.039	20.4709	16.6926	-209.19	-17.8681	32.3005	-216.149	-9.014	55.3096	-227.481	4.59828	36.4028	
166	1.38333	-223.142	38.3382	36.6943	-218.625	44.9074	11.4655	-219.475	43.271	-14.0739	-214.311	36.8942	-31.5249	-209.996	16.299	-21.5998	-183.043	30.7315	-26.8651	-182.053	45.1981	0.976365	-190.029	3.71415	-21.3342	-167.963	23.7746	-17.962	-172.139	36.7966	11.2307	-178.413	-8.09791	-8.06379	-164.027	15.9862	-7.13761	-167.537	27.2473	17.0615	-169.631	-15.2223	3.18938	-161.11	7.25564	1.4424	-165.604	22.3484	19.1881	-209.202	-18.5525	33.5642	-216.425	-7.6002	57.4514	-229.667	7.92374	34.4355	
167	1.39167	-224.291	38.746	40.2334	-219.478	42.3867	9.74602	-218.195	44.0139	-11.3948	-212.491	38.807	-33.6184	-209.848	15.2862	-25.4739	-184.773	29.5563	-27.8062	-182.814	42.3442	-1.15099	-191.3	1.73395	-19.4512	-170.37	21.3698	-20.0335	-172.011	34.2353	11.5769	-183.358	-6.28433	-7.78293	-163.881	16.1605	-7.17251	-170.439	28.0265	18.2553	-175.038	-14.9632	3.73963	-159.208	4.56042	2.12679	-164.803	22.7841	19.7679	-210.37	-18.7651	31.3608	-215.648	-8.97228	57.9957	-230.198	6.67004	34.2728	
